<?xml version="1.0" encoding="UTF-8"?>
<svg version="1.1" xmlns="http://www.w3.org/2000/svg" width="500" height="500">
<path d="M0 0 C165 0 330 0 500 0 C500 165 500 330 500 500 C335 500 170 500 0 500 C0 335 0 170 0 0 Z " fill="#FDFDFE" transform="translate(0,0)"/>
<path d="M0 0 C0.71208115 -0.00807175 1.42416229 -0.01614349 2.15782166 -0.02445984 C3.67183994 -0.0383226 5.18588977 -0.04903491 6.69995117 -0.05688477 C8.99395282 -0.07397006 11.28646441 -0.11781583 13.58007812 -0.16210938 C29.23715031 -0.33001794 29.23715031 -0.33001794 35.5 5.72167969 C39.21983951 9.91038476 40.31562441 13.4052618 40.25390625 18.98046875 C39.53871 24.56673131 36.63747727 30.0147527 32.96484375 34.23828125 C34.35703125 35.29015625 34.35703125 35.29015625 35.77734375 36.36328125 C39.43515993 39.45902166 41.59238273 42.45516976 42.24609375 47.33984375 C42.46802968 52.72178996 41.6881952 57.5417846 38.96484375 62.23828125 C33.30862437 68.1575806 27.3495349 70.33405694 19.31700134 70.54682922 C16.4586016 70.57349856 13.60259854 70.56029463 10.74438477 70.51953125 C8.5084588 70.48801506 6.27323679 70.47851702 4.03710938 70.47265625 C-6.8711946 70.4022429 -6.8711946 70.4022429 -8.03515625 69.23828125 C-8.13463818 67.12690224 -8.16315263 65.01215839 -8.16455078 62.8984375 C-8.16717926 61.9057637 -8.16717926 61.9057637 -8.16986084 60.89303589 C-8.17427842 58.69559135 -8.17134172 56.49822667 -8.16796875 54.30078125 C-8.16864182 52.78002914 -8.16961186 51.25927713 -8.17086792 49.73852539 C-8.17234476 46.54735289 -8.17019077 43.35620833 -8.16552734 40.16503906 C-8.15983005 36.06563595 -8.16310913 31.96629829 -8.16909981 27.86689758 C-8.17270579 24.72545881 -8.17156667 21.58403567 -8.16897202 18.44259644 C-8.16830285 16.93065381 -8.16913082 15.41870979 -8.17145157 13.9067688 C-8.1739787 11.79718238 -8.17013669 9.68770338 -8.16455078 7.578125 C-8.16375519 6.37534912 -8.16295959 5.17257324 -8.16213989 3.93334961 C-7.91675973 -1.27453631 -4.26754614 0.04558289 0 0 Z " fill="#1A253D" transform="translate(225.03515625,214.76171875)"/>
<path d="M0 0 C3.25865412 1.34279019 4.55081452 2.3697284 5.93188477 5.60986328 C6.25680405 6.35388397 6.58172333 7.09790466 6.91648865 7.86447144 C7.25471146 8.67489899 7.59293427 9.48532654 7.94140625 10.3203125 C8.30601456 11.16353058 8.67062286 12.00674866 9.04627991 12.8755188 C10.23043909 15.62032858 11.39652633 18.37242225 12.5625 21.125 C13.77061606 23.9408637 14.98302946 26.75484741 16.19604492 29.56860352 C16.99941405 31.43240037 17.8013381 33.29682079 18.60180664 35.16186523 C20.87127051 40.4377911 23.19257163 45.68181476 25.62890625 50.8828125 C26.14445068 51.98351074 26.65999512 53.08420898 27.19116211 54.21826172 C28.12096309 56.1842533 29.0575723 58.14704498 30.00219727 60.10595703 C30.40623779 60.96302246 30.81027832 61.82008789 31.2265625 62.703125 C31.74597412 63.78062012 31.74597412 63.78062012 32.27587891 64.87988281 C33.12022688 67.35200616 33.12887875 69.40539255 33 72 C31.06440687 72.13504138 29.126128 72.23201129 27.1875 72.3125 C26.10855469 72.37050781 25.02960938 72.42851562 23.91796875 72.48828125 C21 72 21 72 19.23828125 69.79296875 C18.09814932 67.2213778 17.04472275 64.61180688 16 62 C6.1 62 -3.8 62 -14 62 C-16.475 66.95 -16.475 66.95 -19 72 C-22.96 72 -26.92 72 -31 72 C-30.46985585 66.18136807 -28.77296786 61.6473546 -26.31640625 56.375 C-25.94490952 55.55822784 -25.57341278 54.74145569 -25.19065857 53.89993286 C-23.98939009 51.26282674 -22.77605843 48.63146977 -21.5625 46 C-20.32435945 43.29103302 -19.08927969 40.58068614 -17.85458374 37.87014771 C-17.03967072 36.0813484 -16.22377819 34.292995 -15.40689087 32.50509644 C-11.75319427 24.49728272 -8.23957212 16.43443817 -4.81860352 8.32421875 C-4.28964478 7.08478516 -4.28964478 7.08478516 -3.75 5.8203125 C-3.30914062 4.77254639 -3.30914062 4.77254639 -2.859375 3.70361328 C-2 2 -2 2 0 0 Z " fill="#1B263E" transform="translate(151,213)"/>
<path d="M0 0 C6.35247114 3.3067658 10.44138209 8.26089562 13.96875 14.375 C16.10808554 21.50611846 16.11661875 27.70455068 12.90625 34.5 C8.6768181 41.9367511 3.22574991 46.41801633 -4.90625 49.125 C-13.53047092 50.44611227 -20.80342837 49.29635259 -27.90625 44.125 C-33.4822497 39.07758019 -36.43111293 34.39123078 -37.27734375 26.79296875 C-37.42489874 19.05935145 -37.06962533 13.15512898 -31.90625 7.125 C-29.39972725 4.82694053 -26.8125462 2.88726708 -23.90625 1.125 C-23.33390625 0.75117188 -22.7615625 0.37734375 -22.171875 -0.0078125 C-15.81822925 -2.43972518 -6.48124988 -1.95134405 0 0 Z " fill="#1A253D" transform="translate(312.90625,236.875)"/>
<path d="M0 0 C0.89505753 -0.00315216 1.79011505 -0.00630432 2.71229553 -0.009552 C3.68823166 -0.00752777 4.66416779 -0.00550354 5.66967773 -0.00341797 C6.67030746 -0.00437469 7.67093719 -0.00533142 8.70188904 -0.00631714 C10.8279527 -0.00699952 12.95401843 -0.00514122 15.08007812 -0.00097656 C18.31507143 0.00433185 21.54992339 -0.00089922 24.78491211 -0.00732422 C26.85066762 -0.00666268 28.91642305 -0.00537996 30.98217773 -0.00341797 C31.94394424 -0.0054422 32.90571075 -0.00746643 33.8966217 -0.009552 C39.28700819 0.00897482 44.45705068 0.34051932 49.79077148 1.12939453 C49.79077148 5.08939453 49.79077148 9.04939453 49.79077148 13.12939453 C42.86077148 13.12939453 35.93077148 13.12939453 28.79077148 13.12939453 C28.79077148 33.25939453 28.79077148 53.38939453 28.79077148 74.12939453 C24.50077148 74.12939453 20.21077148 74.12939453 15.79077148 74.12939453 C15.79077148 73.13939453 15.79077148 72.14939453 15.79077148 71.12939453 C14.80077148 71.12939453 13.81077148 71.12939453 12.79077148 71.12939453 C12.79077148 51.65939453 12.79077148 32.18939453 12.79077148 12.12939453 C6.85077148 12.12939453 0.91077148 12.12939453 -5.20922852 12.12939453 C-5.30688477 3.63330078 -5.30688477 3.63330078 -5.20922852 1.12939453 C-3.65301927 -0.42681472 -2.16377492 0.00217679 0 0 Z " fill="#192542" transform="translate(338.209228515625,213.87060546875)"/>
<path d="M0 0 C5.34740414 1.95385921 8.45618143 4.91236287 11 10 C11.80607644 16.48825463 10.96341638 20.78497845 7 26 C2.77708921 29.11691034 -1.3947613 29.63920403 -6.52734375 29.484375 C-10.78018897 28.6512742 -13.31277919 26.29047446 -16 23 C-18.32196271 19.06275889 -18.39614965 15.51610597 -18 11 C-14.80018282 2.41101705 -8.89370628 -0.91260046 0 0 Z " fill="#F7F7F8" transform="translate(305,246)"/>
<path d="M0 0 C0.9075 0.00257813 1.815 0.00515625 2.75 0.0078125 C4.11125 0.00394531 4.11125 0.00394531 5.5 0 C7.75 0.1328125 7.75 0.1328125 8.75 1.1328125 C8.84822744 2.60086542 8.8779837 4.0735871 8.87939453 5.54492188 C8.88254669 6.48259399 8.88569885 7.42026611 8.88894653 8.38635254 C8.8869223 9.40612183 8.88489807 10.42589111 8.8828125 11.4765625 C8.88376923 12.51598999 8.88472595 13.55541748 8.88571167 14.62634277 C8.88639363 16.82885804 8.88453827 19.03137529 8.88037109 21.23388672 C8.87502308 24.61820969 8.88031559 28.00239994 8.88671875 31.38671875 C8.88605797 33.52083363 8.88477681 35.65494842 8.8828125 37.7890625 C8.88483673 38.80883179 8.88686096 39.82860107 8.88894653 40.87927246 C8.88579437 41.81694458 8.88264221 42.7546167 8.87939453 43.72070312 C8.87820114 44.96527283 8.87820114 44.96527283 8.87698364 46.23498535 C8.75 48.1328125 8.75 48.1328125 7.75 49.1328125 C6.08570949 49.23105187 4.41718069 49.26254881 2.75 49.2578125 C1.38875 49.26167969 1.38875 49.26167969 0 49.265625 C-2.25 49.1328125 -2.25 49.1328125 -3.25 48.1328125 C-3.34822744 46.66475958 -3.3779837 45.1920379 -3.37939453 43.72070312 C-3.38412277 42.31419495 -3.38412277 42.31419495 -3.38894653 40.87927246 C-3.3869223 39.85950317 -3.38489807 38.83973389 -3.3828125 37.7890625 C-3.38376923 36.74963501 -3.38472595 35.71020752 -3.38571167 34.63928223 C-3.38639363 32.43676696 -3.38453827 30.23424971 -3.38037109 28.03173828 C-3.37502308 24.64741531 -3.38031559 21.26322506 -3.38671875 17.87890625 C-3.38605797 15.74479137 -3.38477681 13.61067658 -3.3828125 11.4765625 C-3.38483673 10.45679321 -3.38686096 9.43702393 -3.38894653 8.38635254 C-3.38579437 7.44868042 -3.38264221 6.5110083 -3.37939453 5.54492188 C-3.37859894 4.71520874 -3.37780334 3.88549561 -3.37698364 3.03063965 C-3.18972796 0.23202003 -2.8002778 0.16529418 0 0 Z " fill="#1D273F" transform="translate(195.25,235.8671875)"/>
<path d="M0 0 C2.701875 -0.061875 5.40375 -0.12375 8.1875 -0.1875 C9.02949951 -0.21481201 9.87149902 -0.24212402 10.73901367 -0.27026367 C15.34920289 -0.32122618 18.22808265 0.0662865 22 3 C24 5 24 5 24.3125 8.8125 C24.20863423 12.62783587 23.47814152 14.99082815 21 18 C17.13589293 20.78215709 12.79506292 20.2222344 8.25 20.125 C4.16625 20.063125 4.16625 20.063125 0 20 C0 13.4 0 6.8 0 0 Z " fill="#F2F2F3" transform="translate(230,254)"/>
<path d="M0 0 C2.701875 -0.061875 5.40375 -0.12375 8.1875 -0.1875 C9.02949951 -0.21481201 9.87149902 -0.24212402 10.73901367 -0.27026367 C15.31952096 -0.32089807 18.28298447 0.01917007 22 3 C23.79009505 6.58019011 23.46638897 10.56196733 22.25 14.3125 C20.60747346 16.52991083 19.62260168 17.04142249 17 18 C14.07772464 18.2412922 11.17958554 18.18767383 8.25 18.125 C4.16625 18.063125 4.16625 18.063125 0 18 C0 12.06 0 6.12 0 0 Z " fill="#F4F4F5" transform="translate(230,226)"/>
<path d="M0 0 C2.64 0 5.28 0 8 0 C8 3.96 8 7.92 8 12 C1.07 12 -5.86 12 -13 12 C-13 32.13 -13 52.26 -13 73 C-17.29 73 -21.58 73 -26 73 C-26 72.01 -26 71.02 -26 70 C-21.545 69.505 -21.545 69.505 -17 69 C-16.67 49.86 -16.34 30.72 -16 11 C-8.08 10.505 -8.08 10.505 0 10 C0 6.7 0 3.4 0 0 Z " fill="#3F56EE" transform="translate(380,215)"/>
<path d="M0 0 C0.66 0 1.32 0 2 0 C3.50855339 3.6006459 5.00535824 7.20605959 6.5 10.8125 C7.14388672 12.34874023 7.14388672 12.34874023 7.80078125 13.91601562 C8.40986328 15.39038086 8.40986328 15.39038086 9.03125 16.89453125 C9.40830078 17.80050049 9.78535156 18.70646973 10.17382812 19.63989258 C11 22 11 22 11 25 C4.4 25 -2.2 25 -9 25 C-8.26268982 21.31344912 -7.53481038 18.53802554 -6.15234375 15.13671875 C-5.61577148 13.80737305 -5.61577148 13.80737305 -5.06835938 12.45117188 C-4.50858398 11.0831543 -4.50858398 11.0831543 -3.9375 9.6875 C-3.56044922 8.75615234 -3.18339844 7.82480469 -2.79492188 6.86523438 C-1.86716875 4.57521083 -0.93541999 2.28690004 0 0 Z " fill="#F4F4F5" transform="translate(151,238)"/>
<path d="M0 0 C2.375 1.5625 2.375 1.5625 4 4 C4.56645882 7.96521177 4.57590314 10.07855498 2.4375 13.5 C0 15 0 15 -3.5625 15 C-7 14 -7 14 -8.9375 12.3125 C-10.33817538 9.26397123 -10.4842732 7.32073048 -10 4 C-7.21921757 -0.06422047 -4.81255755 -0.80209293 0 0 Z " fill="#202A42" transform="translate(201,217)"/>
</svg>
